# xmcd
#
# Track frame offsets:
#	150
#	19060
#	38892
#	57230
#	74867
#	92612
#	112747
#	132820
#	148485
#	164817
#	185987
#	201905
#	221137
#	240907
#	264965
#	287315
#
# Disc length: 4121
#
# Revision: 2
# Processed by: cddbd v1.5.1PL0 Copyright (c) Steve Scherf et al.
# Submitted via: CDex 1.51
# Normalized: r1:TDELIM( - )
#
DISCID=f7101710
DTITLE=Various Artist - DRIVING Music CD2
DYEAR=2000
DGENRE=Country
TTITLE0=LENE MARLIN - When I'm Headed
TTITLE1=JJ GOLDMAN - On ira
TTITLE2=YOUSSOU N'DOUR - Seven seconds
TTITLE3=COCK ROBIN - The promise you made
TTITLE4=BANGLES - Eternal Flame
TTITLE5=DAVID HALLIDAY - Tu ne m'as pas laissé le temps
TTITLE6=PAUL YOUNG - Everytime you go away
TTITLE7=KATE BUSH - Babushka
TTITLE8=PETER KINGSBERY - only the very best
TTITLE9=SAVAGE GARDEN - Crash and burn
TTITLE10=LAURENT VOULZY - Belle ile en mer
TTITLE11=MARC COHN - Walking in Memphis
TTITLE12=RICHARD MARX - Right here waiting
TTITLE13=SANTANA - Black Magic woman
TTITLE14=TOTO - Africa
TTITLE15=EDDY MITCHELL - Rio Grande
EXTD=YEAR: 2000
EXTT0=
EXTT1=
EXTT2=
EXTT3=
EXTT4=
EXTT5=
EXTT6=
EXTT7=
EXTT8=
EXTT9=
EXTT10=
EXTT11=
EXTT12=
EXTT13=
EXTT14=
EXTT15=
PLAYORDER=
